<?xml version="1.0"?>
<svg xmlns="http://www.w3.org/2000/svg" xmlns:xlink="http://www.w3.org/1999/xlink" id="svg_id5c9444e1" version="1.1" shape-rendering="geometricPrecision" viewBox="0 0 512 512" width="250" height="250">
	<rect class="icd_br" ry="50" rx="50" x="0" y="0" stroke-width="0" height="100%" width="100%" stroke="#A9A9A9" fill="transparent"/> 
	<g fill="#1D1D1D">
		<svg xmlns:xlink="http://www.w3.org/1999/xlink" xmlns="http://www.w3.org/2000/svg" xml:space="preserve" viewBox="0 0 16 16" x="-35.5%" y="-35.5%" width="171%" height="171%" version="1.1" class="i_c_d">
			<path d="M10.979,8.182l-2.997,2.65l-2.996-2.65c-0.196-0.196-0.515-0.196-0.711,0c-0.196,0.196-0.196,0.515,0,0.71l3.345,2.959   c0.1,0.101,0.231,0.148,0.362,0.146C8.113,12,8.244,11.953,8.344,11.854l3.346-2.959c0.195-0.196,0.195-0.516,0-0.711   C11.493,7.987,11.174,7.986,10.979,8.182z"/>
			<path d="M7.619,8.266c0.1,0.1,0.231,0.148,0.362,0.146c0.131,0.002,0.263-0.046,0.362-0.146l3.345-2.959   c0.199-0.196,0.199-0.514,0.002-0.711c-0.196-0.196-0.516-0.196-0.711,0l-2.997,2.65l-2.996-2.65C4.789,4.4,4.47,4.4,4.274,4.596   c-0.196,0.196-0.196,0.515,0,0.711L7.619,8.266z"/>
		</svg>
	</g> 
</svg>
